<svg width="70" height="118" viewBox="0 0 93 118" fill="none" xmlns="http://www.w3.org/2000/svg">
<path d="M8.20028 58.2557C7.41193 58.2557 6.73544 57.9734 6.17081 57.4087C5.60618 56.8441 5.32386 56.1676 5.32386 55.3793C5.32386 54.5909 5.60618 53.9144 6.17081 53.3498C6.73544 52.7852 7.41193 52.5028 8.20028 52.5028C8.98864 52.5028 9.66513 52.7852 10.2298 53.3498C10.7944 53.9144 11.0767 54.5909 11.0767 55.3793C11.0767 55.9013 10.9435 56.3807 10.6772 56.8175C10.4215 57.2543 10.0753 57.6058 9.63849 57.8722C9.21236 58.1278 8.73295 58.2557 8.20028 58.2557ZM33.2491 58.2557C32.4608 58.2557 31.7843 57.9734 31.2196 57.4087C30.655 56.8441 30.3727 56.1676 30.3727 55.3793C30.3727 54.5909 30.655 53.9144 31.2196 53.3498C31.7843 52.7852 32.4608 52.5028 33.2491 52.5028C34.0375 52.5028 34.714 52.7852 35.2786 53.3498C35.8432 53.9144 36.1255 54.5909 36.1255 55.3793C36.1255 55.9013 35.9924 56.3807 35.726 56.8175C35.4703 57.2543 35.1241 57.6058 34.6873 57.8722C34.2612 58.1278 33.7818 58.2557 33.2491 58.2557ZM58.2979 58.2557C57.5096 58.2557 56.8331 57.9734 56.2685 57.4087C55.7038 56.8441 55.4215 56.1676 55.4215 55.3793C55.4215 54.5909 55.7038 53.9144 56.2685 53.3498C56.8331 52.7852 57.5096 52.5028 58.2979 52.5028C59.0863 52.5028 59.7628 52.7852 60.3274 53.3498C60.892 53.9144 61.1744 54.5909 61.1744 55.3793C61.1744 55.9013 61.0412 56.3807 60.7749 56.8175C60.5192 57.2543 60.1729 57.6058 59.7362 57.8722C59.31 58.1278 58.8306 58.2557 58.2979 58.2557ZM83.3468 58.2557C82.5584 58.2557 81.8819 57.9734 81.3173 57.4087C80.7527 56.8441 80.4703 56.1676 80.4703 55.3793C80.4703 54.5909 80.7527 53.9144 81.3173 53.3498C81.8819 52.7852 82.5584 52.5028 83.3468 52.5028C84.1351 52.5028 84.8116 52.7852 85.3762 53.3498C85.9409 53.9144 86.2232 54.5909 86.2232 55.3793C86.2232 55.9013 86.09 56.3807 85.8237 56.8175C85.568 57.2543 85.2218 57.6058 84.785 57.8722C84.3588 58.1278 83.8794 58.2557 83.3468 58.2557Z" fill="white"/>
<ellipse cx="46.5" cy="0.5" rx="46.5" ry="34.5" fill="#7CCAF7"/>
<path d="M8.20028 85.2557C7.41193 85.2557 6.73544 84.9734 6.17081 84.4087C5.60618 83.8441 5.32386 83.1676 5.32386 82.3793C5.32386 81.5909 5.60618 80.9144 6.17081 80.3498C6.73544 79.7852 7.41193 79.5028 8.20028 79.5028C8.98864 79.5028 9.66513 79.7852 10.2298 80.3498C10.7944 80.9144 11.0767 81.5909 11.0767 82.3793C11.0767 82.9013 10.9435 83.3807 10.6772 83.8175C10.4215 84.2543 10.0753 84.6058 9.63849 84.8722C9.21236 85.1278 8.73295 85.2557 8.20028 85.2557ZM33.2491 85.2557C32.4608 85.2557 31.7843 84.9734 31.2196 84.4087C30.655 83.8441 30.3727 83.1676 30.3727 82.3793C30.3727 81.5909 30.655 80.9144 31.2196 80.3498C31.7843 79.7852 32.4608 79.5028 33.2491 79.5028C34.0375 79.5028 34.714 79.7852 35.2786 80.3498C35.8432 80.9144 36.1255 81.5909 36.1255 82.3793C36.1255 82.9013 35.9924 83.3807 35.726 83.8175C35.4703 84.2543 35.1241 84.6058 34.6873 84.8722C34.2612 85.1278 33.7818 85.2557 33.2491 85.2557ZM58.2979 85.2557C57.5096 85.2557 56.8331 84.9734 56.2685 84.4087C55.7038 83.8441 55.4215 83.1676 55.4215 82.3793C55.4215 81.5909 55.7038 80.9144 56.2685 80.3498C56.8331 79.7852 57.5096 79.5028 58.2979 79.5028C59.0863 79.5028 59.7628 79.7852 60.3274 80.3498C60.892 80.9144 61.1744 81.5909 61.1744 82.3793C61.1744 82.9013 61.0412 83.3807 60.7749 83.8175C60.5192 84.2543 60.1729 84.6058 59.7362 84.8722C59.31 85.1278 58.8306 85.2557 58.2979 85.2557ZM83.3468 85.2557C82.5584 85.2557 81.8819 84.9734 81.3173 84.4087C80.7527 83.8441 80.4703 83.1676 80.4703 82.3793C80.4703 81.5909 80.7527 80.9144 81.3173 80.3498C81.8819 79.7852 82.5584 79.5028 83.3468 79.5028C84.1351 79.5028 84.8116 79.7852 85.3762 80.3498C85.9409 80.9144 86.2232 81.5909 86.2232 82.3793C86.2232 82.9013 86.09 83.3807 85.8237 83.8175C85.568 84.2543 85.2218 84.6058 84.785 84.8722C84.3588 85.1278 83.8794 85.2557 83.3468 85.2557Z" fill="white"/>
<path d="M8.20028 107.256C7.41193 107.256 6.73544 106.973 6.17081 106.409C5.60618 105.844 5.32386 105.168 5.32386 104.379C5.32386 103.591 5.60618 102.914 6.17081 102.35C6.73544 101.785 7.41193 101.503 8.20028 101.503C8.98864 101.503 9.66513 101.785 10.2298 102.35C10.7944 102.914 11.0767 103.591 11.0767 104.379C11.0767 104.901 10.9435 105.381 10.6772 105.817C10.4215 106.254 10.0753 106.606 9.63849 106.872C9.21236 107.128 8.73295 107.256 8.20028 107.256ZM33.2491 107.256C32.4608 107.256 31.7843 106.973 31.2196 106.409C30.655 105.844 30.3727 105.168 30.3727 104.379C30.3727 103.591 30.655 102.914 31.2196 102.35C31.7843 101.785 32.4608 101.503 33.2491 101.503C34.0375 101.503 34.714 101.785 35.2786 102.35C35.8432 102.914 36.1255 103.591 36.1255 104.379C36.1255 104.901 35.9924 105.381 35.726 105.817C35.4703 106.254 35.1241 106.606 34.6873 106.872C34.2612 107.128 33.7818 107.256 33.2491 107.256ZM58.2979 107.256C57.5096 107.256 56.8331 106.973 56.2685 106.409C55.7038 105.844 55.4215 105.168 55.4215 104.379C55.4215 103.591 55.7038 102.914 56.2685 102.35C56.8331 101.785 57.5096 101.503 58.2979 101.503C59.0863 101.503 59.7628 101.785 60.3274 102.35C60.892 102.914 61.1744 103.591 61.1744 104.379C61.1744 104.901 61.0412 105.381 60.7749 105.817C60.5192 106.254 60.1729 106.606 59.7362 106.872C59.31 107.128 58.8306 107.256 58.2979 107.256ZM83.3468 107.256C82.5584 107.256 81.8819 106.973 81.3173 106.409C80.7527 105.844 80.4703 105.168 80.4703 104.379C80.4703 103.591 80.7527 102.914 81.3173 102.35C81.8819 101.785 82.5584 101.503 83.3468 101.503C84.1351 101.503 84.8116 101.785 85.3762 102.35C85.9409 102.914 86.2232 103.591 86.2232 104.379C86.2232 104.901 86.09 105.381 85.8237 105.817C85.568 106.254 85.2218 106.606 84.785 106.872C84.3588 107.128 83.8794 107.256 83.3468 107.256Z" fill="white"/>
</svg>
